<svg width="179" height="32" viewBox="0 0 179 32" fill="none" xmlns="http://www.w3.org/2000/svg">
<rect x="1" y="1" width="177" height="30" rx="5" fill="white" stroke="#333333" stroke-width="2"/>
<path d="M31.678 10.7324H30.1289V20.9998H31.678V10.7324Z" fill="#333333"/>
<path d="M35.3127 16.4276C35.3127 15.1993 36.0647 14.4975 37.1075 14.4975C38.1252 14.4975 38.7419 15.1642 38.7419 16.2822V20.9998H40.2409V16.1017C40.2409 14.1967 39.1931 13.199 37.6189 13.199C36.4608 13.199 35.7038 13.7354 35.3478 14.5526H35.2526V13.2993H33.8137V20.9998H35.3127V16.4276Z" fill="#333333"/>
<path d="M48.0216 15.1793C47.7108 13.9811 46.7733 13.199 45.1089 13.199C43.3692 13.199 42.1359 14.1164 42.1359 15.4801C42.1359 16.573 42.7977 17.2999 44.2415 17.6208L45.545 17.9066C46.287 18.072 46.6329 18.4029 46.6329 18.8842C46.6329 19.4808 45.9962 19.947 45.0136 19.947C44.1162 19.947 43.5397 19.561 43.3592 18.8039L41.9103 19.0245C42.161 20.3882 43.294 21.1552 45.0236 21.1552C46.8836 21.1552 48.172 20.1676 48.172 18.7739C48.172 17.686 47.4802 17.0142 46.0664 16.6883L44.8431 16.4076C43.9959 16.207 43.6299 15.9213 43.6349 15.3999C43.6299 14.8083 44.2716 14.3872 45.1239 14.3872C46.0564 14.3872 46.4875 14.9035 46.663 15.4199L48.0216 15.1793Z" fill="#333333"/>
<path d="M53.4148 13.2993H51.8355V11.4543H50.3365V13.2993H49.2085V14.5025H50.3365V19.0496C50.3315 20.4483 51.3994 21.1251 52.5825 21.1001C53.0588 21.0951 53.3797 21.0048 53.5551 20.9396L53.2844 19.7013C53.1841 19.7214 52.9986 19.7665 52.758 19.7665C52.2717 19.7665 51.8355 19.6061 51.8355 18.7388V14.5025H53.4148V13.2993Z" fill="#333333"/>
<path d="M57.3139 21.1703C58.5873 21.1703 59.3042 20.5235 59.59 19.947H59.6501V20.9998H61.114V15.8862C61.114 13.6452 59.3493 13.199 58.1261 13.199C56.7323 13.199 55.4489 13.7605 54.9476 15.1642L56.3563 15.4851C56.5769 14.9386 57.1384 14.4122 58.1461 14.4122C59.1137 14.4122 59.61 14.9186 59.61 15.7909V15.826C59.61 16.3725 59.0485 16.3624 57.6648 16.5229C56.2059 16.6933 54.712 17.0743 54.712 18.824C54.712 20.338 55.85 21.1703 57.3139 21.1703ZM57.6398 19.967C56.7925 19.967 56.1809 19.586 56.1809 18.8441C56.1809 18.0419 56.8928 17.7562 57.7601 17.6408C58.2464 17.5757 59.3995 17.4453 59.615 17.2297V18.2224C59.615 19.1348 58.8881 19.967 57.6398 19.967Z" fill="#333333"/>
<path d="M64.6096 10.7324H63.1106V20.9998H64.6096V10.7324Z" fill="#333333"/>
<path d="M68.1252 10.7324H66.6262V20.9998H68.1252V10.7324Z" fill="#333333"/>
<path d="M121.144 22.3135C122.302 22.3135 123.64 21.9977 124.262 21.7069L123.911 20.609C123.49 20.7594 122.332 21.1253 121.209 21.1253C117.835 21.1253 116.025 19.2654 116.025 15.9365C116.025 12.748 117.815 10.6875 121.023 10.6875C123.956 10.6875 125.706 12.5725 125.701 15.1193C125.706 17.2951 125.425 18.2727 124.513 18.2727C123.996 18.2727 123.71 17.8516 123.71 17.3252V12.6728H122.477V13.2343H122.412C122.262 12.7931 121.389 12.3971 120.341 12.5224C118.893 12.6929 117.649 13.8911 117.649 15.8663C117.649 17.9268 118.702 19.3055 120.392 19.3707C121.535 19.4208 122.277 18.8894 122.512 18.2978H122.572C122.693 19.105 123.565 19.4609 124.422 19.4308C126.563 19.3907 126.969 17.2851 126.969 15.1695C126.969 12.1514 124.904 9.52441 121.073 9.52441C117.058 9.52441 114.696 11.976 114.691 15.9265C114.696 19.9923 116.998 22.3135 121.144 22.3135ZM120.682 18.1424C119.374 18.1424 118.923 17.0194 118.918 15.8062C118.923 14.6531 119.569 13.7356 120.702 13.7356C121.931 13.7356 122.482 14.2771 122.487 15.8012C122.492 17.3653 121.986 18.1424 120.682 18.1424Z" fill="#8B8B8B"/>
<path d="M128.79 21H130.339V16.5231H134.701V15.1945H130.339V12.0662H135.157V10.7326H128.79V21Z" fill="#8B8B8B"/>
<path d="M136.942 21H138.441V13.2995H136.942V21ZM137.699 12.1113C138.215 12.1113 138.647 11.7102 138.647 11.2189C138.647 10.7276 138.215 10.3215 137.699 10.3215C137.178 10.3215 136.751 10.7276 136.751 11.2189C136.751 11.7102 137.178 12.1113 137.699 12.1113Z" fill="#8B8B8B"/>
<path d="M143.686 24.0331C145.646 24.0331 147.16 23.1357 147.16 21.1705V13.2995H145.692V14.5478H145.581C145.316 14.0715 144.784 13.1992 143.35 13.1992C141.49 13.1992 140.122 14.6681 140.122 17.1197C140.122 19.5762 141.52 20.8847 143.34 20.8847C144.754 20.8847 145.301 20.0876 145.571 19.5963H145.667V21.1103C145.667 22.2985 144.839 22.8249 143.701 22.8249C142.453 22.8249 141.967 22.1982 141.701 21.7721L140.412 22.3035C140.819 23.231 141.846 24.0331 143.686 24.0331ZM143.671 19.6414C142.333 19.6414 141.636 18.6137 141.636 17.0996C141.636 15.6207 142.318 14.4726 143.671 14.4726C144.98 14.4726 145.682 15.5405 145.682 17.0996C145.682 18.6889 144.965 19.6414 143.671 19.6414Z" fill="#8B8B8B"/>
<path d="M149.171 21H150.67V16.2524C150.67 15.2146 151.397 14.4927 152.249 14.4927C153.081 14.4927 153.658 15.0441 153.658 15.8814V21H155.152V16.0919C155.152 15.1645 155.718 14.4927 156.696 14.4927C157.488 14.4927 158.14 14.9338 158.14 15.9766V21H159.639V15.8362C159.639 14.0766 158.656 13.1992 157.262 13.1992C156.154 13.1992 155.322 13.7306 154.951 14.5528H154.871C154.535 13.7106 153.828 13.1992 152.801 13.1992C151.783 13.1992 151.026 13.7056 150.705 14.5528H150.61V13.2995H149.171V21Z" fill="#8B8B8B"/>
<path d="M163.889 21.1705C165.162 21.1705 165.879 20.5237 166.165 19.9472H166.225V21H167.689V15.8864C167.689 13.6454 165.924 13.1992 164.701 13.1992C163.307 13.1992 162.024 13.7607 161.523 15.1645L162.931 15.4853C163.152 14.9389 163.713 14.4124 164.721 14.4124C165.689 14.4124 166.185 14.9188 166.185 15.7911V15.8262C166.185 16.3727 165.623 16.3626 164.24 16.5231C162.781 16.6935 161.287 17.0745 161.287 18.8242C161.287 20.3383 162.425 21.1705 163.889 21.1705ZM164.215 19.9673C163.367 19.9673 162.756 19.5862 162.756 18.8443C162.756 18.0421 163.468 17.7564 164.335 17.6411C164.821 17.5759 165.974 17.4455 166.19 17.23V18.2226C166.19 19.135 165.463 19.9673 164.215 19.9673Z" fill="#8B8B8B"/>
<path fill-rule="evenodd" clip-rule="evenodd" d="M23.4185 17.4645L19.441 21.4419C19.197 21.686 18.8012 21.686 18.5571 21.4419L14.5797 17.4645C14.3356 17.2204 14.3356 16.8247 14.5797 16.5806C14.8237 16.3365 15.2195 16.3365 15.4636 16.5806L18.3741 19.4911L18.3741 11L19.6241 11L19.6241 19.4911L22.5346 16.5806C22.7787 16.3365 23.1744 16.3365 23.4185 16.5806C23.6626 16.8247 23.6626 17.2204 23.4185 17.4645Z" fill="#333333"/>
<path d="M104 2L104 30" stroke="#D1D1D1" stroke-width="2"/>
</svg>
