<svg width="32" height="32" viewBox="0 0 32 32" fill="none" xmlns="http://www.w3.org/2000/svg">
<path fill-rule="evenodd" clip-rule="evenodd" d="M8.5 10C9.32843 10 10 9.32843 10 8.5C10 7.67157 9.32843 7 8.5 7C7.67157 7 7 7.67157 7 8.5C7 9.32843 7.67157 10 8.5 10ZM13.5529 23C14.3617 22.5921 14.9648 22.0685 15.4075 21.446C16.5006 19.9089 16.5003 17.8939 16.5 16.0842L16.5 16C16.5 14.0812 16.5176 12.385 17.4075 11.1335C18.2655 9.92692 20.0554 9 24 9V8H11V9H18.4471C17.6383 9.4079 17.0352 9.93153 16.5925 10.554C15.4994 12.0911 15.4997 14.1061 15.5 15.9158V15.9158L15.5 16C15.5 17.9188 15.4824 19.615 14.5925 20.8665C13.7345 22.0731 11.9446 23 8 23V24H21V23H13.5529ZM25 23.5C25 24.3284 24.3284 25 23.5 25C22.6716 25 22 24.3284 22 23.5C22 22.6716 22.6716 22 23.5 22C24.3284 22 25 22.6716 25 23.5Z" fill="black"/>
</svg>
