<svg width="32" height="32" viewBox="0 0 32 32" fill="none" xmlns="http://www.w3.org/2000/svg">
<path fill-rule="evenodd" clip-rule="evenodd" d="M14.5528 10.5046C16.8485 8.99043 19.9159 8.00007 24 8.00007L24 9.00007C20.0841 9.00007 17.214 9.94722 15.1034 11.3393C12.9906 12.7329 11.6071 14.5934 10.7001 16.4679C9.79181 18.3449 9.36541 20.2285 9.16706 21.6474C9.06806 22.3556 9.02634 22.9447 9.00934 23.3548C9.00084 23.5597 8.99852 23.7197 8.99829 23.8271C8.99817 23.8808 8.99858 23.9213 8.99899 23.9478L8.99955 23.9768L8.99972 23.9832L8.99975 23.9843C8.99975 23.9843 8.99975 23.9842 8.99975 23.9843C8.99975 23.9841 8.99974 23.984 8.5 24.0001C8.00026 24.0162 8.00025 24.0159 8.00024 24.0155L8.00021 24.0145L8.00012 24.0113L7.99984 24.0009L7.99911 23.9634C7.99861 23.9312 7.99816 23.8847 7.99829 23.8249C7.99855 23.7053 8.00112 23.5322 8.01019 23.3133C8.02835 22.8757 8.07256 22.2539 8.17669 21.509C8.38459 20.0217 8.83319 18.0302 9.79992 16.0323C10.7679 14.0318 12.2594 12.0173 14.5528 10.5046Z" fill="black"/>
</svg>
