<svg width="32" height="32" viewBox="0 0 32 32" fill="none" xmlns="http://www.w3.org/2000/svg">
<path fill-rule="evenodd" clip-rule="evenodd" d="M15.4075 21.446C14.2655 23.0519 12.0554 24 8 24V23C11.9446 23 13.7345 22.0731 14.5925 20.8665C15.4824 19.615 15.5 17.9188 15.5 16C15.5 15.972 15.5 15.9439 15.5 15.9158C15.4997 14.1061 15.4994 12.0911 16.5925 10.554C17.7345 8.94808 19.9446 8 24 8V9C20.0554 9 18.2655 9.92692 17.4075 11.1335C16.5176 12.385 16.5 14.0812 16.5 16C16.5 16.028 16.5 16.0561 16.5 16.0842C16.5003 17.8939 16.5006 19.9089 15.4075 21.446Z" fill="black"/>
</svg>
