<svg width="32" height="32" viewBox="0 0 32 32" fill="none" xmlns="http://www.w3.org/2000/svg">
<path fill-rule="evenodd" clip-rule="evenodd" d="M17.4472 21.4954C15.1515 23.0096 12.0841 23.9999 8 23.9999V22.9999C11.9159 22.9999 14.786 22.0528 16.8966 20.6607C19.0094 19.2671 20.3929 17.4066 21.2999 15.5321C22.2082 13.6551 22.6346 11.7715 22.8329 10.3526C22.9319 9.64435 22.9737 9.05526 22.9907 8.64522C22.9992 8.44029 23.0015 8.28035 23.0017 8.17292C23.0018 8.11921 23.0014 8.07866 23.001 8.05219L23.0004 8.02319L23.0003 8.01684L23.0002 8.01574C23.0003 8.01587 23.0003 8.01604 23.5 7.99992C23.9997 7.9838 23.9998 7.98411 23.9998 7.98448L23.9998 7.98552L23.9999 7.98865L24.0002 7.99913L24.0009 8.03658C24.0014 8.06877 24.0018 8.11525 24.0017 8.17507C24.0015 8.29469 23.9989 8.46776 23.9898 8.68666C23.9717 9.12427 23.9274 9.74611 23.8233 10.491C23.6154 11.9783 23.1668 13.9698 22.2001 15.9677C21.2321 17.9682 19.7406 19.9827 17.4472 21.4954Z" fill="black"/>
</svg>
