<svg width="32" height="32" viewBox="0 0 32 32" fill="none" xmlns="http://www.w3.org/2000/svg">
<path fill-rule="evenodd" clip-rule="evenodd" d="M12.9275 19.0342C12.1647 20.8003 10.8379 22.5096 8.24071 23.9381L7.75879 23.0619C10.1615 21.7404 11.3348 20.1997 12.0095 18.6377C12.4968 17.5095 12.7226 16.3932 12.9494 15.272C13.0471 14.7889 13.145 14.3048 13.2641 13.8186C13.6507 12.2399 14.2561 10.7331 15.8792 9.65395C17.4721 8.5948 19.9684 8 23.9997 8V9C20.0311 9 17.7774 9.5927 16.4328 10.4867C15.1184 11.3606 14.5988 12.5726 14.2354 14.0564C14.1351 14.4659 14.0461 14.9049 13.9534 15.3628C13.7181 16.5234 13.4584 17.8052 12.9275 19.0342Z" fill="black"/>
</svg>
